<svg xmlns="http://www.w3.org/2000/svg" viewBox="0 0 87.93 116.47"><defs><style>.cls-1{fill:#ffd199;}.cls-2{fill:#f2b686;}.cls-3{fill:#e5a87f;}.cls-4{opacity:0.2;}.cls-5{fill:#9e725c;}</style></defs><title>cone</title><g id="Capa_2" data-name="Capa 2"><path class="cls-1" d="M87.93,4.77a4.92,4.92,0,0,1-.33,1.79l-2.07,5.61-2.69,7.25L78.63,30.81l-.93,2.5L71.55,49.93l-2.42,6.55-4.48,12.1-.92,2.5L57.59,87.7l-2.17,5.85-4.75,12.81-.91,2.49-1.71,4.62a4.26,4.26,0,0,1-7,1.83,4.87,4.87,0,0,1-1.18-1.83l-1.71-4.62-.92-2.49L32.51,93.54,30.35,87.7,24.19,71.08l-.91-2.5L18.8,56.48l-2.43-6.55L10.23,33.31l-.93-2.5L5.08,19.42,2.4,12.17.32,6.56A5.13,5.13,0,0,1,0,4.77,4.61,4.61,0,0,1,4.4,0H83.53a4.22,4.22,0,0,1,3.15,1.44A5,5,0,0,1,87.93,4.77Z"/><path class="cls-2" d="M13,2.41,2.4,12.17.32,6.56A5.13,5.13,0,0,1,0,4.77,4.61,4.61,0,0,1,4.4,0h6.75L13,1.67A.5.5,0,0,1,13,2.41Z"/><path class="cls-2" d="M41.42,2.41,30.07,12.89a.49.49,0,0,1-.66,0L18.07,2.41a.5.5,0,0,1,0-.74L19.87,0H39.61l1.81,1.67A.51.51,0,0,1,41.42,2.41Z"/><path class="cls-2" d="M69.86,2.41,58.51,12.89a.47.47,0,0,1-.64,0L46.51,2.41a.53.53,0,0,1,0-.74L48.32,0H68.05l1.81,1.67A.5.5,0,0,1,69.86,2.41Z"/><path class="cls-2" d="M87.93,4.77a4.92,4.92,0,0,1-.33,1.79l-2.07,5.61L75,2.41a.5.5,0,0,1,0-.74L76.77,0h6.76a4.22,4.22,0,0,1,3.15,1.44A5,5,0,0,1,87.93,4.77Z"/><path class="cls-2" d="M15.84,25.4,27.19,14.92a.51.51,0,0,0,0-.74L15.84,3.71a.46.46,0,0,0-.65,0L3.84,14.18a.5.5,0,0,0,0,.74L15.19,25.4A.48.48,0,0,0,15.84,25.4Z"/><path class="cls-2" d="M44.29,25.4,55.64,14.92a.51.51,0,0,0,0-.74L44.29,3.71a.46.46,0,0,0-.65,0L32.29,14.18a.51.51,0,0,0,0,.74L43.64,25.4A.48.48,0,0,0,44.29,25.4Z"/><path class="cls-2" d="M72.74,25.4,84.09,14.92a.5.5,0,0,0,0-.74L72.74,3.71a.46.46,0,0,0-.65,0L60.74,14.18a.51.51,0,0,0,0,.74L72.09,25.4A.48.48,0,0,0,72.74,25.4Z"/><path class="cls-2" d="M13,27.43,9.3,30.81,5.08,19.42,13,26.7A.49.49,0,0,1,13,27.43Z"/><path class="cls-2" d="M30.06,37.91,41.41,27.43a.49.49,0,0,0,0-.73L30.06,16.22a.48.48,0,0,0-.65,0L18.06,26.7a.5.5,0,0,0,0,.73L29.41,37.91A.48.48,0,0,0,30.06,37.91Z"/><path class="cls-2" d="M58.52,37.91,69.87,27.43a.5.5,0,0,0,0-.73L58.52,16.22a.49.49,0,0,0-.66,0L46.51,26.7a.5.5,0,0,0,0,.73L57.86,37.91A.49.49,0,0,0,58.52,37.91Z"/><path class="cls-2" d="M82.84,19.42,78.63,30.81,75,27.43a.49.49,0,0,1,0-.73Z"/><path class="cls-2" d="M27.19,40l-10.82,10L10.23,33.31l5-4.58a.48.48,0,0,1,.65,0L27.19,39.21A.51.51,0,0,1,27.19,40Z"/><path class="cls-2" d="M44.29,50.43,55.64,40a.51.51,0,0,0,0-.74L44.29,28.73a.48.48,0,0,0-.65,0L32.29,39.21a.51.51,0,0,0,0,.74L43.64,50.43A.48.48,0,0,0,44.29,50.43Z"/><path class="cls-2" d="M77.7,33.31,71.55,49.93,60.74,40a.51.51,0,0,1,0-.74L72.09,28.73a.48.48,0,0,1,.65,0Z"/><path class="cls-2" d="M30.06,62.94,41.41,52.46a.5.5,0,0,0,0-.74L30.06,41.24a.48.48,0,0,0-.65,0L18.06,51.72a.51.51,0,0,0,0,.74L29.41,62.94A.48.48,0,0,0,30.06,62.94Z"/><path class="cls-2" d="M58.52,62.94,69.87,52.46a.51.51,0,0,0,0-.74L58.52,41.24a.49.49,0,0,0-.66,0L46.51,51.72a.51.51,0,0,0,0,.74L57.86,62.94A.49.49,0,0,0,58.52,62.94Z"/><path class="cls-2" d="M27.19,65l-3.91,3.61L18.8,56.48l8.39,7.75A.51.51,0,0,1,27.19,65Z"/><path class="cls-2" d="M44.29,75.45,55.64,65a.51.51,0,0,0,0-.74L44.29,53.75a.48.48,0,0,0-.65,0L32.29,64.23a.51.51,0,0,0,0,.74L43.64,75.45A.48.48,0,0,0,44.29,75.45Z"/><path class="cls-2" d="M69.13,56.48l-4.48,12.1L60.74,65a.51.51,0,0,1,0-.74Z"/><path class="cls-2" d="M41.42,77.48,30.35,87.7,24.19,71.08l5.22-4.81a.47.47,0,0,1,.66,0L41.42,76.74A.51.51,0,0,1,41.42,77.48Z"/><path class="cls-2" d="M63.73,71.08,57.59,87.7,46.51,77.48a.53.53,0,0,1,0-.74L57.87,66.27a.45.45,0,0,1,.64,0Z"/><path class="cls-2" d="M44.29,100.47,55.64,90a.5.5,0,0,0,0-.73L44.29,78.78a.48.48,0,0,0-.65,0L32.29,89.26a.5.5,0,0,0,0,.73l11.35,10.48A.48.48,0,0,0,44.29,100.47Z"/><path class="cls-2" d="M41.42,102.51l-4.17,3.85L32.51,93.54l8.91,8.23A.51.51,0,0,1,41.42,102.51Z"/><path class="cls-2" d="M55.42,93.55l-4.75,12.81-4.16-3.85a.53.53,0,0,1,0-.74Z"/><path class="cls-2" d="M49.76,108.85l-1.71,4.62a4.26,4.26,0,0,1-7,1.83,4.87,4.87,0,0,1-1.18-1.83l-1.71-4.62,5.47-5a.48.48,0,0,1,.65,0Z"/><path class="cls-1" d="M79.62,4.77a5.13,5.13,0,0,1-.28,1.67.56.56,0,0,1,0,.12l-.88,2.38-1.19,3.23-2.69,7.25-2.25,6.09-1.71,4.62-.25.68-.93,2.5-4,10.9-.92,2.5-1.19,3.22-2.43,6.55L58.41,63l-1.55,4.2-.51,1.37-.92,2.5-4,10.9-.92,2.5L49.28,87.7l-2.17,5.85-2.42,6.56-1.54,4.14-.78,2.11-.92,2.49-1.63,4.42-1.64-4.42-.92-2.49-.78-2.11L35,100.12l-2.43-6.58L30.36,87.7l-1.2-3.23L28.23,82l-4-10.9-.92-2.5-.51-1.38L21.22,63h0L18.8,56.48l-2.42-6.55-1.19-3.22-.92-2.5-4-10.9-.93-2.5-.25-.68L7.34,25.51,5.09,19.42,2.4,12.17,1.21,8.94.33,6.56a.56.56,0,0,1,0-.12C.24,6.3.2,6.16.16,6A4.93,4.93,0,0,1,0,4.77c0-.15,0-.3,0-.45a4.83,4.83,0,0,1,.13-.76,2.29,2.29,0,0,1,.08-.28,6.13,6.13,0,0,1,.29-.75l.2-.37s0,0,0,0S.89,1.9,1,1.78A4.73,4.73,0,0,1,1.83.9L2.11.7l0,0L2.42.52l0,0,.3-.15L3.08.22A1.68,1.68,0,0,1,3.4.13,1.27,1.27,0,0,1,3.68.07l.25,0L4.4,0H76.78l-.24.22a4.38,4.38,0,0,1,1.83,1.22A5,5,0,0,1,79.62,4.77Z"/><path class="cls-3" d="M13,2.41,2.4,12.17l-.38-1,9.47-8.74a.51.51,0,0,0,0-.74L9.68,0h1.48L13,1.67A.5.5,0,0,1,13,2.41Z"/><path class="cls-2" d="M11.49,2.41,2,11.15.33,6.56A4.92,4.92,0,0,1,0,4.77,4.61,4.61,0,0,1,4.4,0H9.68l1.81,1.67A.51.51,0,0,1,11.49,2.41Z"/><path class="cls-3" d="M41.42,2.41,30.07,12.89a.48.48,0,0,1-.65,0l-.33-.31,11-10.17a.5.5,0,0,0,0-.74L38.29,0h1.32l1.81,1.67A.51.51,0,0,1,41.42,2.41Z"/><path class="cls-2" d="M40.1,2.41l-11,10.17-11-10.17a.5.5,0,0,1,0-.74L19.88,0H38.29L40.1,1.67A.5.5,0,0,1,40.1,2.41Z"/><path class="cls-3" d="M69.86,2.41,58.52,12.89a.48.48,0,0,1-.65,0l-.41-.38L68.4,2.41a.51.51,0,0,0,0-.74L66.59,0h1.47l1.8,1.67A.5.5,0,0,1,69.86,2.41Z"/><path class="cls-2" d="M68.4,2.41,57.46,12.51l-11-10.1a.53.53,0,0,1,0-.74L48.32,0H66.59L68.4,1.67A.51.51,0,0,1,68.4,2.41Z"/><path class="cls-2" d="M79.62,4.77a5.13,5.13,0,0,1-.28,1.67L75,2.41a.5.5,0,0,1,0-.74L76.54.22a4.38,4.38,0,0,1,1.83,1.22A5,5,0,0,1,79.62,4.77Z"/><path class="cls-3" d="M27.19,14.92,15.84,25.4a.48.48,0,0,1-.65,0l-.69-.64,10.65-9.84a.51.51,0,0,0,0-.74L14.5,4.34l.69-.64a.48.48,0,0,1,.65,0L27.19,14.18A.51.51,0,0,1,27.19,14.92Z"/><path class="cls-2" d="M25.15,14.92,14.5,24.76,3.84,14.92a.51.51,0,0,1,0-.74L14.5,4.34l10.65,9.84A.51.51,0,0,1,25.15,14.92Z"/><path class="cls-2" d="M44.29,25.4,55.64,14.92a.51.51,0,0,0,0-.74L44.29,3.71a.46.46,0,0,0-.65,0L32.29,14.18a.51.51,0,0,0,0,.74L43.64,25.4A.48.48,0,0,0,44.29,25.4Z"/><path class="cls-2" d="M78.42,8.94l-1.19,3.23-2.69,7.25-2.25,6.09a.37.37,0,0,1-.19-.11l-2-1.86-1.82-1.68-7.52-6.94a.51.51,0,0,1,0-.74l7.52-6.94,1.81-1.68,2-1.86a.47.47,0,0,1,.64,0Z"/><path class="cls-3" d="M13,27.43,9.3,30.81l-.36-1,2.62-2.42a.49.49,0,0,0,0-.73L5.82,21.4l-.73-2L13,26.7A.49.49,0,0,1,13,27.43Z"/><path class="cls-2" d="M11.56,27.43,8.94,29.85,5.82,21.4l5.74,5.3A.49.49,0,0,1,11.56,27.43Z"/><path class="cls-2" d="M30.06,37.91,41.41,27.43a.49.49,0,0,0,0-.73L30.06,16.22a.48.48,0,0,0-.65,0L18.06,26.7a.5.5,0,0,0,0,.73L29.41,37.91A.48.48,0,0,0,30.06,37.91Z"/><path class="cls-2" d="M58.52,37.91,69.87,27.43a.5.5,0,0,0,0-.73L58.52,16.22a.49.49,0,0,0-.66,0L46.51,26.7a.5.5,0,0,0,0,.73L57.86,37.91A.49.49,0,0,0,58.52,37.91Z"/><path class="cls-3" d="M27.19,40l-10.81,10-.52-1.4L25.15,40a.51.51,0,0,0,0-.74L14.5,29.37l.69-.64a.48.48,0,0,1,.65,0L27.19,39.21A.51.51,0,0,1,27.19,40Z"/><path class="cls-2" d="M25.15,40l-9.29,8.58L10.23,33.31l4.27-3.94,10.65,9.84A.51.51,0,0,1,25.15,40Z"/><path class="cls-2" d="M44.29,50.43,55.64,40a.51.51,0,0,0,0-.74L44.29,28.73a.48.48,0,0,0-.65,0L32.29,39.21a.51.51,0,0,0,0,.74L43.64,50.43A.48.48,0,0,0,44.29,50.43Z"/><path class="cls-2" d="M70.58,30.13l-.25.68-.93,2.5-4,10.9L60.75,40a.5.5,0,0,1,0-.74l7.51-6.94,1.82-1.68Z"/><path class="cls-2" d="M30.06,62.94,41.41,52.46a.5.5,0,0,0,0-.74L30.06,41.24a.48.48,0,0,0-.65,0L18.06,51.72a.51.51,0,0,0,0,.74L29.41,62.94A.48.48,0,0,0,30.06,62.94Z"/><path class="cls-2" d="M64.44,46.71l-1.19,3.22-2.43,6.55L58.41,63a.49.49,0,0,1-.55-.07l-2-1.86L54,59.41l-7.53-6.95a.51.51,0,0,1,0-.74L54,44.77l1.81-1.67,2-1.86a.49.49,0,0,1,.66,0Z"/><path class="cls-3" d="M27.19,65l-3.91,3.61L23,67.74,26,65a.5.5,0,0,0,0-.74l-6.54-6.05-.63-1.7,8.39,7.75A.51.51,0,0,1,27.19,65Z"/><path class="cls-2" d="M26,65l-3,2.77-3.54-9.56L26,64.23A.5.5,0,0,1,26,65Z"/><path class="cls-2" d="M44.29,75.45,55.64,65a.51.51,0,0,0,0-.74L44.29,53.75a.48.48,0,0,0-.65,0L32.29,64.23a.51.51,0,0,0,0,.74L43.64,75.45A.48.48,0,0,0,44.29,75.45Z"/><path class="cls-3" d="M41.42,77.48,30.35,87.7l-.45-1.21,9.76-9a.51.51,0,0,0,0-.74l-10.8-10,.56-.51a.46.46,0,0,1,.65,0L41.42,76.74A.51.51,0,0,1,41.42,77.48Z"/><path class="cls-2" d="M39.66,77.48l-9.76,9L24.2,71.08l4.66-4.3,10.8,10A.51.51,0,0,1,39.66,77.48Z"/><path class="cls-2" d="M56.86,67.21l-.51,1.37-.92,2.5-4,10.9-4.88-4.5a.53.53,0,0,1,0-.74L54,69.8l1.82-1.67Z"/><g class="cls-4"><path class="cls-5" d="M87.93,4.77a5.13,5.13,0,0,1-.32,1.79l-2.07,5.61-2.69,7.25L78.63,30.81l-.92,2.5L71.56,49.93l-2.43,6.55-4.47,12.1-.92,2.5L57.59,87.7l-2.17,5.85-4.74,12.81-.92,2.49-1.71,4.62a4.26,4.26,0,0,1-7,1.83,4.73,4.73,0,0,1-1.17-1.83l-.07-.2,1.63-4.42.92-2.49.78-2.11,1.54-4.14L55.64,90a.5.5,0,0,0,0-.74l-5.17-4.77.92-2.5,4-10.9.92-2.5.51-1.37L58.41,63l2.41-6.53,2.43-6.55,1.19-3.22.92-2.5,4-10.9.93-2.5.25-.68,1.71-4.62,2.25-6.09,2.69-7.25,1.19-3.23.88-2.38a.56.56,0,0,0,0-.12,5.13,5.13,0,0,0,.28-1.67,5,5,0,0,0-1.25-3.33A4.38,4.38,0,0,0,76.54.22L76.78,0h6.75a4.2,4.2,0,0,1,3.15,1.44A5,5,0,0,1,87.93,4.77Z"/><path class="cls-5" d="M55.64,90l-11,10.12,2.42-6.56,2.17-5.85,1.19-3.22,5.17,4.77A.5.5,0,0,1,55.64,90Z"/></g><path class="cls-2" d="M50.47,84.48,49.28,87.7l-2.17,5.85-2.42,6.56-.39.36a.49.49,0,0,1-.66,0l-2-1.86-1.81-1.67-7.53-7a.51.51,0,0,1,0-.74l7.53-6.94,1.81-1.67,2-1.86a.47.47,0,0,1,.66,0Z"/><path class="cls-2" d="M41.42,102.51l-4.17,3.85L32.51,93.54l8.91,8.23A.51.51,0,0,1,41.42,102.51Z"/><polygon class="cls-2" points="43.15 104.25 42.37 106.36 41.45 108.85 39.82 113.27 38.18 108.85 39.82 107.34 41.62 105.67 43.15 104.25"/><path class="cls-3" d="M55.64,14.92,44.29,25.4a.48.48,0,0,1-.65,0L43,24.76,53.6,14.92a.51.51,0,0,0,0-.74L43,4.34l.69-.64a.48.48,0,0,1,.65,0L55.64,14.18A.51.51,0,0,1,55.64,14.92Z"/><path class="cls-3" d="M55.64,40,44.29,50.43a.48.48,0,0,1-.65,0L43,49.79,53.6,40a.51.51,0,0,0,0-.74L43,29.37l.69-.64a.48.48,0,0,1,.65,0L55.64,39.21A.51.51,0,0,1,55.64,40Z"/><path class="cls-3" d="M55.64,65,44.29,75.45a.48.48,0,0,1-.65,0L43,74.81,53.6,65a.51.51,0,0,0,0-.74L43,54.39l.69-.64a.48.48,0,0,1,.65,0L55.64,64.23A.51.51,0,0,1,55.64,65Z"/><path class="cls-3" d="M55.64,90,44.29,100.47a.48.48,0,0,1-.65,0L43,99.83,53.6,90a.51.51,0,0,0,0-.74L43,79.41l.69-.64a.48.48,0,0,1,.65,0L55.64,89.25A.51.51,0,0,1,55.64,90Z"/><path class="cls-3" d="M84,14.92,72.62,25.4a.48.48,0,0,1-.65,0l-.69-.64,10.65-9.84a.51.51,0,0,0,0-.74L71.28,4.34,72,3.7a.48.48,0,0,1,.65,0L84,14.18A.51.51,0,0,1,84,14.92Z"/><path class="cls-3" d="M41.42,27.44,30.07,37.92a.48.48,0,0,1-.65,0l-.69-.64,10.65-9.84a.51.51,0,0,0,0-.74L28.73,16.86l.69-.64a.48.48,0,0,1,.65,0L41.42,26.7A.51.51,0,0,1,41.42,27.44Z"/><path class="cls-3" d="M41.42,52.46,30.07,62.94a.48.48,0,0,1-.65,0l-.69-.64,10.65-9.84a.51.51,0,0,0,0-.74L28.73,41.88l.69-.64a.48.48,0,0,1,.65,0L41.42,51.72A.51.51,0,0,1,41.42,52.46Z"/><path class="cls-3" d="M69.87,27.44,58.52,37.92a.48.48,0,0,1-.65,0l-.69-.64,10.65-9.84a.51.51,0,0,0,0-.74L57.18,16.86l.69-.64a.48.48,0,0,1,.65,0L69.87,26.7A.51.51,0,0,1,69.87,27.44Z"/><path class="cls-3" d="M69.87,52.46,58.52,62.94a.48.48,0,0,1-.65,0l-.69-.64,10.65-9.84a.51.51,0,0,0,0-.74L57.18,41.88l.69-.64a.48.48,0,0,1,.65,0L69.87,51.72A.51.51,0,0,1,69.87,52.46Z"/></g></svg>