<svg xmlns="http://www.w3.org/2000/svg" viewBox="0 0 119.45 109.16"><defs><style>.cls-1{isolation:isolate;}.cls-2{fill:#d39494;}.cls-3{fill:#e8e27e;}.cls-4{fill:#ffb4b1;}.cls-5{fill:#a7d0d7;}.cls-6{fill:#4c4c4c;opacity:0.03;mix-blend-mode:multiply;}.cls-7{fill:#f9f4f2;}</style></defs><title>rainbow</title><g class="cls-1"><g id="Capa_2" data-name="Capa 2"><path class="cls-2" d="M119.45,80A23.55,23.55,0,0,1,95.9,103.57a23.17,23.17,0,0,1-4.52-.44,23.55,23.55,0,0,0,8.72-42.57A50.46,50.46,0,0,0,55.2.21Q57.43,0,59.73,0a50.51,50.51,0,0,1,49.44,60.56A23.54,23.54,0,0,1,119.45,80Z"/><path class="cls-3" d="M90.59,19.62c-8.16,1.49-9.45-3.41-17.37-2.39s-14.81,11.74-30,8S13,31.43,13,31.43c.18-.44.36-.87.55-1.3a50.27,50.27,0,0,1,7.16-11.64c.1-.13.21-.25.32-.37a40.44,40.44,0,0,1,2.79-3.07c.7-.73,1.44-1.44,2.21-2.12A50.19,50.19,0,0,1,55.2.21,50,50,0,0,1,67.89,3h0A50.88,50.88,0,0,1,90,18.87C90.21,19.12,90.41,19.37,90.59,19.62Z"/><path class="cls-4" d="M106.33,66.81C96.41,66,95.05,59,85.09,58.21S69,71.87,57.52,66s-18.89-8-29.74,0S1.39,72,1.39,72a20.86,20.86,0,0,1,.91-2.18,23.65,23.65,0,0,1,8-9.3c-.27-1.36-.5-2.73-.66-4.13a51.22,51.22,0,0,1-.35-6v-.07c0-1.08,0-2.15.11-3.21a45.24,45.24,0,0,1,.57-5,48.24,48.24,0,0,1,1.48-6.39c.45-1.49,1-3,1.55-4.38,0,0,15.05-9.86,30.24-6.16s22.09-7,30-8,9.21,3.88,17.37,2.39a50,50,0,0,1,5.2,8.26,49,49,0,0,1,2.42,5.67,49.85,49.85,0,0,1,2.9,15.94c0,.32,0,.64,0,1,0,.94,0,1.88-.09,2.81,0,.36,0,.71-.06,1.06a49.07,49.07,0,0,1-.87,6.24A23.3,23.3,0,0,1,106.33,66.81Z"/><path class="cls-5" d="M110.39,80a23.67,23.67,0,0,1-.23,3.28h0a23.52,23.52,0,0,1-18.78,19.82q-.48-.09-1-.21l-.5.45a23.46,23.46,0,0,1-15.47,5.8A23.58,23.58,0,0,1,59.69,104a23.51,23.51,0,0,1-30.72-1,23.58,23.58,0,0,1-5.42.64,22,22,0,0,1-3.16-.22c-.47,0-.93-.13-1.39-.22a23.61,23.61,0,0,1-17.57-15A21.76,21.76,0,0,1,.76,86,23.57,23.57,0,0,1,0,81.43C0,81,0,80.49,0,80a23.52,23.52,0,0,1,.43-4.47,22.7,22.7,0,0,1,1-3.51S16.92,74,27.78,66,46,60.12,57.52,66s17.62-8.55,27.57-7.78,11.32,7.76,21.24,8.6q.36.52.69,1.08h0a22.63,22.63,0,0,1,1.67,3.34,20.75,20.75,0,0,1,1,3.24c.06.26.12.52.17.78A23.29,23.29,0,0,1,110.39,80Z"/><path class="cls-4" d="M37.9,20.41c-6-.47-14.74-.77-16.89-2.29a40.44,40.44,0,0,1,2.79-3.07A38.31,38.31,0,0,1,42.33,14C52.89,16.2,46.36,21.07,37.9,20.41Z"/><path class="cls-3" d="M109.9,75.26c-2.33,1.06-6.58,1.73-11.29,1.44C87.34,76,68.8,75.63,77.9,71.77a66.55,66.55,0,0,1,26.58-1.48,28.77,28.77,0,0,1,4.21.95,20.75,20.75,0,0,1,1,3.24C109.79,74.74,109.85,75,109.9,75.26Z"/><path class="cls-4" d="M54.19,89.5A65.33,65.33,0,0,1,80.49,88c13.92,2.26,5.33,7.1-5.81,6.4S45.19,93.35,54.19,89.5Z"/><path class="cls-5" d="M79.28,8.9a16.12,16.12,0,0,1-8,1.23c-8.47-.66-22.4-1-15.54-4.87A38.43,38.43,0,0,1,67.89,3h0A50.21,50.21,0,0,1,79.28,8.9Z"/><path class="cls-3" d="M39.65,34a106.54,106.54,0,0,1,33.73-1.37C91.24,35,80.25,39.79,66,39.05S28.11,37.85,39.65,34Z"/><path class="cls-3" d="M22.29,87.21C15.62,86.87,7,86.58.76,86A23.57,23.57,0,0,1,0,81.43a107.49,107.49,0,0,1,29.68-.6C47.58,83.14,36.59,88,22.29,87.21Z"/><path class="cls-5" d="M21.71,48.21c-3.8-.3-8.7-.53-12.33-1a45.24,45.24,0,0,1,.57-5,37.55,37.55,0,0,1,16.19-.42C36.7,44,30.17,48.87,21.71,48.21Z"/><path class="cls-5" d="M101.12,50.45c0,.94,0,1.88-.09,2.81-3.28,1-9,1.58-15.22,1.27-15.55-.76-41.14-1.25-28.6-5.05a125.7,125.7,0,0,1,36.67-1.33,44.69,44.69,0,0,1,7.23,1.34C101.12,49.81,101.12,50.13,101.12,50.45Z"/><path class="cls-6" d="M90,18.87a2.89,2.89,0,0,1-1.1.61,21.51,21.51,0,0,1-6.1.95,25.32,25.32,0,0,1-7.3-1.3,35.39,35.39,0,0,0-9.57-1.65,26.71,26.71,0,0,0-9.2,1.08,24.44,24.44,0,0,1-11.57.65c-9.53-1.4-22.06,0-22.18,0a2.93,2.93,0,0,1-2.3-.73A49,49,0,0,1,26,12.93a99.33,99.33,0,0,1,20,.34,18.65,18.65,0,0,0,9.13-.5,33,33,0,0,1,11-1.29,41.46,41.46,0,0,1,11,1.88c3,.86,5.11,1.46,8.49.75A50.41,50.41,0,0,1,90,18.87Z"/><path class="cls-6" d="M98.21,33.55c-2.88,2.32-12.59,9.6-21.66,9.6a13.49,13.49,0,0,1-8.22-2.6c-8.7-6.45-13-6.81-28.73-2.42-14.89,4.17-25.5-.84-28.17-2.32a50,50,0,0,1,2.1-5.68,2.47,2.47,0,0,1,.49.24c.41.26,9.76,6,24,2,16.26-4.54,23.06-4.67,33.91,3.38,6.49,4.81,18.94-3.7,23.19-7.39a3.13,3.13,0,0,1,.7-.46A49,49,0,0,1,98.21,33.55Z"/><path class="cls-6" d="M101,54.32a49.07,49.07,0,0,1-.87,6.24A2.92,2.92,0,0,1,99,60.13c-.12-.08-12.65-8-21.59-5.45a68,68,0,0,0-6.7,2.39c-4.43,1.75-9,3.55-14.36,3.55A29.45,29.45,0,0,1,43.46,57.4c-13-6.2-33.15-1.1-33.35-1a2.64,2.64,0,0,1-.49.08,51.22,51.22,0,0,1-.35-6v-.07c3.86-.91,23.11-4.94,36.78,1.61,9.6,4.59,15.26,2.35,22.43-.5a75.59,75.59,0,0,1,7.29-2.59C85.48,46.16,97.15,52.12,101,54.32Z"/><path class="cls-6" d="M109.73,74.48a3,3,0,0,1-2-.08c-6.92-2.82-17.21-.43-27.16,1.88-4.23,1-8.61,2-12.72,2.61a30.29,30.29,0,0,1-4.47.33c-5,0-9.36-1.21-13.61-2.4-6-1.67-11.7-3.25-19-1.28-15.52,4.18-26.84,1.18-30.3,0A22.89,22.89,0,0,1,2.3,69.86c2.91,1,12.85,3.66,26.86-.11,8.91-2.4,15.66-.52,22.2,1.29C56.45,72.46,61.26,73.8,67,73c3.87-.57,7.94-1.52,12.24-2.52,9.67-2.25,19.63-4.57,27.83-2.55h0A23,23,0,0,1,109.73,74.48Z"/><path class="cls-6" d="M107.94,83.72c-.07,0-7.58,4.71-19,1.09-7.35-2.33-15.17.67-22.73,3.58C59,91.17,52.15,93.8,46.15,92c-10.69-3.3-29.46-3.69-38.48-3.87C5.88,88,4,88,3.39,88a3,3,0,0,0-2,.16A23.32,23.32,0,0,0,4.61,94l2.93.07c8.75.18,27,.55,36.84,3.61a20.52,20.52,0,0,0,6.08.88c6,0,12-2.32,17.94-4.58,6.9-2.65,13.41-5.16,18.75-3.46a31.31,31.31,0,0,0,20.9-.26,23.43,23.43,0,0,0,2.11-7h0A3,3,0,0,0,107.94,83.72Z"/><path class="cls-7" d="M23,40.94a2.25,2.25,0,0,1-1.9-2.3c0-.58.74-14.37,18.35-25.46A2.25,2.25,0,0,1,41.88,17C26.4,26.74,25.65,38.33,25.63,38.82A2.25,2.25,0,0,1,23.28,41Z"/><circle class="cls-7" cx="22.73" cy="46.34" r="2.04"/></g></g></svg>